<svg width="31" height="32" viewBox="0 0 31 32" fill="none" xmlns="http://www.w3.org/2000/svg">
<g clip-path="url(#clip0_3_610)" filter="url(#filter0_d_3_610)">
<path d="M4.92322 12.0618C4.92322 4.06177 7.92322 1.06177 15.9232 1.06177C23.9232 1.06177 26.9232 4.06177 26.9232 12.0618C26.9232 20.0618 23.9232 23.0618 15.9232 23.0618C7.92322 23.0618 4.92322 20.0618 4.92322 12.0618Z" fill="#FF0045"/>
<path d="M20.3632 7.14178H11.4832C10.9103 7.14178 10.3609 7.36936 9.95586 7.77443C9.55078 8.17951 9.32321 8.72892 9.32321 9.30178V14.8218C9.32321 15.3947 9.55078 15.9441 9.95586 16.3491C10.3609 16.7542 10.9103 16.9818 11.4832 16.9818H20.3632C20.9361 16.9818 21.4855 16.7542 21.8906 16.3491C22.2956 15.9441 22.5232 15.3947 22.5232 14.8218V9.30178C22.5232 8.72892 22.2956 8.17951 21.8906 7.77443C21.4855 7.36936 20.9361 7.14178 20.3632 7.14178ZM15.9232 14.4618C15.4485 14.4618 14.9845 14.321 14.5898 14.0573C14.1952 13.7936 13.8876 13.4188 13.7059 12.9802C13.5243 12.5417 13.4767 12.0591 13.5693 11.5936C13.6619 11.128 13.8905 10.7004 14.2262 10.3647C14.5618 10.0291 14.9894 9.8005 15.455 9.7079C15.9205 9.6153 16.4031 9.66282 16.8417 9.84447C17.2802 10.0261 17.655 10.3337 17.9187 10.7284C18.1825 11.1231 18.3232 11.5871 18.3232 12.0618C18.3245 12.3773 18.2634 12.69 18.1432 12.9818C18.0231 13.2736 17.8463 13.5387 17.6232 13.7618C17.4001 13.9849 17.135 14.1616 16.8432 14.2818C16.5514 14.4019 16.2388 14.4631 15.9232 14.4618ZM19.9232 10.9218C19.6621 10.9218 19.4069 10.8444 19.1899 10.6993C18.9728 10.5543 18.8036 10.3481 18.7037 10.1069C18.6038 9.86573 18.5776 9.60032 18.6286 9.34427C18.6795 9.08821 18.8052 8.85301 18.9898 8.6684C19.1744 8.4838 19.4096 8.35808 19.6657 8.30715C19.9217 8.25622 20.1872 8.28236 20.4284 8.38226C20.6696 8.48217 20.8757 8.65136 21.0208 8.86843C21.1658 9.0855 21.2432 9.34071 21.2432 9.60178C21.2432 9.95187 21.1041 10.2876 20.8566 10.5352C20.609 10.7827 20.2733 10.9218 19.9232 10.9218Z" fill="white"/>
</g>
<defs>
<filter id="filter0_d_3_610" x="-0.0767822" y="0.0617676" width="32" height="32" filterUnits="userSpaceOnUse" color-interpolation-filters="sRGB">
<feFlood flood-opacity="0" result="BackgroundImageFix"/>
<feColorMatrix in="SourceAlpha" type="matrix" values="0 0 0 0 0 0 0 0 0 0 0 0 0 0 0 0 0 0 127 0" result="hardAlpha"/>
<feOffset dy="4"/>
<feGaussianBlur stdDeviation="2"/>
<feComposite in2="hardAlpha" operator="out"/>
<feColorMatrix type="matrix" values="0 0 0 0 0 0 0 0 0 0 0 0 0 0 0 0 0 0 0.25 0"/>
<feBlend mode="normal" in2="BackgroundImageFix" result="effect1_dropShadow_3_610"/>
<feBlend mode="normal" in="SourceGraphic" in2="effect1_dropShadow_3_610" result="shape"/>
</filter>
<clipPath id="clip0_3_610">
<rect width="24" height="24" fill="white" transform="translate(3.92322 0.0617676)"/>
</clipPath>
</defs>
</svg>
