<svg width="25" height="25" viewBox="0 0 25 25" fill="none" xmlns="http://www.w3.org/2000/svg">
<g clip-path="url(#clip0_3_634)">
<path d="M1.28214 12.0618C1.28214 4.06177 4.28214 1.06177 12.2821 1.06177C20.2821 1.06177 23.2821 4.06177 23.2821 12.0618C23.2821 20.0618 20.2821 23.0618 12.2821 23.0618C4.28214 23.0618 1.28214 20.0618 1.28214 12.0618Z" fill="#FF7B00"/>
<path d="M12.2821 10.8018C13.5911 10.8018 14.6521 9.74068 14.6521 8.43177C14.6521 7.12285 13.5911 6.06177 12.2821 6.06177C10.9732 6.06177 9.91214 7.12285 9.91214 8.43177C9.91214 9.74068 10.9732 10.8018 12.2821 10.8018Z" fill="#FFE588"/>
<path d="M12.2821 18.0618C13.1829 18.0635 14.0722 17.8589 14.8817 17.4637C15.6912 17.0684 16.3994 16.4931 16.9521 15.7818C16.761 14.6819 16.1877 13.6847 15.3334 12.9661C14.4791 12.2474 13.3985 11.8534 12.2821 11.8534C11.1657 11.8534 10.0852 12.2474 9.23084 12.9661C8.37652 13.6847 7.80327 14.6819 7.61212 15.7818C8.16483 16.4931 8.87307 17.0684 9.68257 17.4637C10.4921 17.8589 11.3813 18.0635 12.2821 18.0618Z" fill="white"/>
</g>
<defs>
<clipPath id="clip0_3_634">
<rect width="24" height="24" fill="white" transform="translate(0.282135 0.0617676)"/>
</clipPath>
</defs>
</svg>
