<svg width="300" height="300" viewBox="0 0 300 300" fill="none" xmlns="http://www.w3.org/2000/svg">
<rect width="300" height="300" fill="#F27742"/>
<path d="M154.419 100H145.581C143.143 100 141.167 101.976 141.167 104.414C141.167 106.852 143.143 108.828 145.581 108.828H154.419C156.857 108.828 158.833 106.852 158.833 104.414C158.833 101.976 156.857 100 154.419 100Z" fill="white"/>
<path d="M196.903 200H103.378C101.772 200 100.231 199.354 99.0889 198.202C96.6789 195.77 96.158 192.326 98.5681 189.894C99.7097 188.742 101.772 187.57 103.378 187.57H181.716C184.568 187.57 193.599 184.043 186.97 153.338C186.924 153.128 186.903 152.905 186.889 152.69C186.722 149.98 184.47 147.833 181.716 147.833H107.166C105.074 147.833 103.378 146.138 103.378 144.048C103.378 140.552 104.079 137.026 106.1 134.173C107.886 131.65 110.01 129.383 112.416 127.441L113.382 126.661C119.008 122.119 129.585 119.388 141.167 118.467C158.644 117.076 178.41 119.808 186.899 126.661L187.865 127.441C190.042 129.198 191.988 131.221 193.662 133.459C196.105 136.724 196.903 140.854 196.903 144.931V153.422C196.903 156.058 199.337 187.496 201.192 189.368C203.603 191.8 203.603 195.77 201.192 198.202C200.051 199.354 198.509 200 196.903 200Z" fill="white"/>
<path d="M115.036 184.018C115.469 184.018 115.852 183.74 115.987 183.329L117.871 177.559C118.005 177.148 118.389 176.869 118.821 176.869H128.593C129.026 176.869 129.409 177.148 129.544 177.559L131.428 183.329C131.562 183.74 131.946 184.018 132.378 184.018H137.146C137.833 184.018 138.315 183.341 138.091 182.692L128.073 153.699C127.934 153.296 127.555 153.025 127.128 153.025H120.285C119.859 153.025 119.48 153.295 119.34 153.697L109.283 182.691C109.057 183.34 109.54 184.018 110.228 184.018H115.036ZM121.103 171.861C120.422 171.861 119.941 171.196 120.152 170.55L123.567 160.105C123.587 160.044 123.643 160.003 123.707 160.003V160.003C123.771 160.003 123.828 160.044 123.847 160.105L127.262 170.55C127.474 171.196 126.992 171.861 126.312 171.861H121.103Z" fill="white"/>
<path d="M142.061 183.018C142.061 183.571 142.509 184.018 143.061 184.018H147.401C147.953 184.018 148.401 183.571 148.401 183.018V161.773C148.401 161.221 147.953 160.773 147.401 160.773H143.061C142.509 160.773 142.061 161.221 142.061 161.773V183.018ZM141.762 154.523C141.762 156.279 143.325 157.734 145.231 157.734C147.116 157.734 148.679 156.279 148.658 154.523C148.679 152.725 147.116 151.291 145.231 151.27C143.325 151.291 141.762 152.725 141.762 154.523Z" fill="white"/>
<path d="M164.378 184.018C173.844 184.018 179.563 178.175 179.541 168.479C179.563 158.826 173.844 153.025 164.507 153.025H154.455C153.903 153.025 153.455 153.473 153.455 154.025V183.018C153.455 183.571 153.903 184.018 154.455 184.018H164.378ZM160.88 178.496C160.328 178.496 159.88 178.048 159.88 177.496V159.547C159.88 158.995 160.328 158.547 160.88 158.547H164.164C170.032 158.547 173.116 161.587 173.116 168.479C173.116 175.435 170.032 178.496 164.121 178.496H160.88Z" fill="white"/>
</svg>
