<svg width="512" height="512" viewBox="0 0 512 512" fill="none" xmlns="http://www.w3.org/2000/svg">
<rect width="512" height="512" fill="black"/>
<path fill-rule="evenodd" clip-rule="evenodd" d="M392.533 380.474V235.364H278.674V284.977H327.849C323.736 310.596 309.216 325.219 284.288 328.845C273.866 319.595 259.188 310.232 238.266 301.278C235.426 293.733 231.277 286.329 225.956 284.14C223.948 283.314 221.716 284.285 221.191 286.367C220.743 288.143 220.515 290.766 220.803 294.441C217.392 293.218 213.849 292.005 210.166 290.804C205.907 279.248 203.777 265.12 203.777 248.42C203.777 221.313 209.325 200.547 220.421 186.123C231.517 171.45 247.404 164.114 268.083 164.114C296.579 164.114 313.853 177.419 319.906 204.029H388.372C385.598 177.17 374.376 154.913 354.706 137.256C332.01 116.863 303.514 106.667 269.218 106.667C231.391 106.667 199.995 118.106 175.029 140.986C162.222 152.729 152.268 166.298 145.166 181.693C144.796 181.848 144.439 181.982 144.1 182.09C136.127 184.609 129.382 185.821 124.136 186.294C116.807 186.955 110.024 183.69 104.266 179.17C103.448 178.528 102.669 177.837 101.89 177.145C100.801 176.179 99.7122 175.212 98.5174 174.381C94.8941 171.862 91.5571 172.583 95.9824 187.751C97.2182 192.232 100.843 198.971 103.88 204.616C104.971 206.644 105.986 208.532 106.787 210.122C108.452 213.428 110.44 224.613 112.407 235.686C113.762 243.308 115.107 250.879 116.331 255.789C118.294 266.59 126.79 288.034 133.986 305.032C137.762 313.953 142.742 322.27 148.697 329.865C148.372 329.783 148.044 329.702 147.714 329.621C117.604 322.223 121.689 329.031 130.073 335.346C132.942 337.507 135.406 340.174 137.843 342.811C138.034 343.017 138.225 343.224 138.416 343.43C142.683 348.037 148.933 352.012 154.165 354.753C158.172 356.851 162.84 357.029 167.286 356.141C167.616 356.075 167.941 356.012 168.263 355.951C177.87 366.801 191.522 378.762 210.752 390.431C248.936 413.603 292.755 404.962 310.256 396.37C310.838 396.085 311.059 395.486 310.916 394.962C311.282 394.943 311.63 394.921 311.962 394.894C314.29 394.709 315.182 392.32 314.403 390.149C313.294 387.054 312.561 383.395 311.738 379.294C311.59 378.553 311.439 377.798 311.282 377.029C323.709 371.086 334.401 362.535 343.358 351.378V353.989V355.854V380.474H392.533ZM139.57 195.967C141.181 191.046 143.047 186.288 145.166 181.693C146.458 181.153 147.922 180.356 149.433 179.533C152.288 177.978 155.31 176.332 157.652 176.16C166.629 175.498 152.031 186.78 144.711 191.947C142.858 193.255 141.148 194.599 139.57 195.967ZM131.906 247.381C139.98 256.32 151.868 264.508 164.174 271.339C166.701 266.771 162.495 256.437 159.233 250.463C170.651 246.659 177.144 259.091 183.786 271.807C185.985 276.018 188.201 280.26 190.617 283.954C194.804 285.658 198.694 287.105 202.106 288.263C204.864 289.104 207.55 289.951 210.166 290.804C219.734 316.762 240.048 329.742 271.109 329.742C275.785 329.742 280.178 329.443 284.288 328.845C304.218 346.534 308.582 363.809 311.282 377.029C297.118 383.802 280.701 387.189 262.031 387.189C220.421 387.189 187.512 372.641 163.303 343.544C142.372 318.178 131.906 286.221 131.906 247.674C131.906 247.576 131.906 247.478 131.906 247.381ZM131.906 247.381C126.797 241.723 123.215 235.763 122.023 229.656C121.888 222.566 125.337 208.303 139.57 195.967C134.487 211.486 131.933 228.624 131.906 247.381Z" fill="url(#paint0_linear_4009_5393)"/>
<defs>
<linearGradient id="paint0_linear_4009_5393" x1="141.383" y1="358.747" x2="507.754" y2="110.235" gradientUnits="userSpaceOnUse">
<stop stop-color="white"/>
<stop offset="1" stop-color="white"/>
</linearGradient>
</defs>
</svg>
