<svg width="500" height="495" viewBox="0 0 500 495" fill="none" xmlns="http://www.w3.org/2000/svg">
<path d="M0 50C0 22.3858 22.3858 0 50 0H450C477.614 0 500 22.3858 500 50V445C500 472.614 477.614 495 450 495H50C22.3858 495 0 472.614 0 445V50Z" fill="white"/>
<path d="M227.002 129.247C228.498 131.063 229.415 133.286 229.634 135.628C229.853 137.97 229.363 140.324 228.228 142.385C219.363 158.64 214.734 176.86 214.765 195.369C214.765 256.943 265.029 306.803 326.977 306.803C335.057 306.803 342.924 305.96 350.483 304.352C352.8 303.851 355.214 304.043 357.423 304.904C359.632 305.764 361.538 307.255 362.903 309.191C364.344 311.204 365.079 313.636 364.993 316.109C364.907 318.582 364.005 320.958 362.428 322.866C350.402 337.619 335.23 349.506 318.019 357.66C300.809 365.814 281.993 370.03 262.944 370C192.256 370 135 313.127 135 243.054C135 190.315 167.415 145.08 213.569 125.908C215.868 124.938 218.421 124.739 220.843 125.341C223.265 125.943 225.426 127.313 227.002 129.247Z" fill="black"/>
</svg>
