<svg width="25" height="25" viewBox="0 0 25 25" fill="none" xmlns="http://www.w3.org/2000/svg">
<g clip-path="url(#clip0_3_965)">
<path d="M1.547 12.9384C1.547 4.93835 4.547 1.93835 12.547 1.93835C20.547 1.93835 23.547 4.93835 23.547 12.9384C23.547 20.9384 20.547 23.9384 12.547 23.9384C4.547 23.9384 1.547 20.9384 1.547 12.9384Z" fill="#0BA1E6"/>
<path d="M17.547 8.25841H7.547C7.32303 8.25308 7.10026 8.29259 6.8918 8.37463C6.68333 8.45666 6.49338 8.57957 6.33311 8.7361C6.17285 8.89264 6.04551 9.07965 5.95859 9.28613C5.87168 9.49261 5.82693 9.71438 5.827 9.93841V15.9384C5.82693 16.1624 5.87168 16.3842 5.95859 16.5907C6.04551 16.7972 6.17285 16.9842 6.33311 17.1407C6.49338 17.2973 6.68333 17.4202 6.8918 17.5022C7.10026 17.5842 7.32303 17.6237 7.547 17.6184H8.547V19.5384L9.757 17.6184H17.547C17.771 17.6237 17.9937 17.5842 18.2022 17.5022C18.4107 17.4202 18.6006 17.2973 18.7609 17.1407C18.9211 16.9842 19.0485 16.7972 19.1354 16.5907C19.2223 16.3842 19.2671 16.1624 19.267 15.9384V9.93841C19.2671 9.71438 19.2223 9.49261 19.1354 9.28613C19.0485 9.07965 18.9211 8.89264 18.7609 8.7361C18.6006 8.57957 18.4107 8.45666 18.2022 8.37463C17.9937 8.29259 17.771 8.25308 17.547 8.25841Z" fill="white"/>
<path d="M8.947 14.1384C8.70966 14.1384 8.47765 14.068 8.28031 13.9362C8.08298 13.8043 7.92917 13.6169 7.83834 13.3976C7.74752 13.1784 7.72375 12.9371 7.77006 12.7043C7.81636 12.4715 7.93065 12.2577 8.09847 12.0899C8.26629 11.9221 8.48011 11.8078 8.71289 11.7615C8.94567 11.7152 9.18695 11.7389 9.40622 11.8297C9.62549 11.9206 9.8129 12.0744 9.94476 12.2717C10.0766 12.4691 10.147 12.7011 10.147 12.9384C10.147 13.2567 10.0206 13.5619 9.79553 13.7869C9.57048 14.012 9.26526 14.1384 8.947 14.1384ZM12.547 14.1384C12.3097 14.1384 12.0777 14.068 11.8803 13.9362C11.683 13.8043 11.5292 13.6169 11.4383 13.3976C11.3475 13.1784 11.3238 12.9371 11.3701 12.7043C11.4164 12.4715 11.5306 12.2577 11.6985 12.0899C11.8663 11.9221 12.0801 11.8078 12.3129 11.7615C12.5457 11.7152 12.7869 11.7389 13.0062 11.8297C13.2255 11.9206 13.4129 12.0744 13.5448 12.2717C13.6766 12.4691 13.747 12.7011 13.747 12.9384C13.747 13.2567 13.6206 13.5619 13.3955 13.7869C13.1705 14.012 12.8653 14.1384 12.547 14.1384ZM16.147 14.1384C15.9097 14.1384 15.6777 14.068 15.4803 13.9362C15.283 13.8043 15.1292 13.6169 15.0383 13.3976C14.9475 13.1784 14.9238 12.9371 14.9701 12.7043C15.0164 12.4715 15.1306 12.2577 15.2985 12.0899C15.4663 11.9221 15.6801 11.8078 15.9129 11.7615C16.1457 11.7152 16.3869 11.7389 16.6062 11.8297C16.8255 11.9206 17.0129 12.0744 17.1448 12.2717C17.2766 12.4691 17.347 12.7011 17.347 12.9384C17.347 13.2567 17.2206 13.5619 16.9955 13.7869C16.7705 14.012 16.4653 14.1384 16.147 14.1384Z" fill="#005DB1"/>
</g>
<defs>
<clipPath id="clip0_3_965">
<rect width="24" height="24" fill="white" transform="translate(0.546997 0.938354)"/>
</clipPath>
</defs>
</svg>
