<svg width="25" height="25" viewBox="0 0 25 25" fill="none" xmlns="http://www.w3.org/2000/svg">
<g clip-path="url(#clip0_3_983)">
<path d="M1.45294 12.9384C1.45294 4.93835 4.45294 1.93835 12.4529 1.93835C20.4529 1.93835 23.4529 4.93835 23.4529 12.9384C23.4529 20.9384 20.4529 23.9384 12.4529 23.9384C4.45294 23.9384 1.45294 20.9384 1.45294 12.9384Z" fill="#FF5B13"/>
<path fill-rule="evenodd" clip-rule="evenodd" d="M16.6529 6.93838H8.45294C8.06762 6.93639 7.68992 7.04575 7.36527 7.25331C7.04063 7.46087 6.78285 7.7578 6.62294 8.10838C6.92675 8.14763 7.20404 8.30158 7.398 8.53867C7.59196 8.77577 7.68791 9.07807 7.66617 9.38363C7.64444 9.68919 7.50667 9.97487 7.2811 10.1821C7.05553 10.3894 6.75924 10.5025 6.45294 10.4984V11.7384C6.77065 11.7418 7.07491 11.8671 7.30294 12.0884C7.45511 12.2582 7.55574 12.4679 7.59305 12.6928C7.63037 12.9178 7.60281 13.1487 7.51362 13.3585C7.42444 13.5684 7.2773 13.7485 7.08945 13.8778C6.9016 14.007 6.68081 14.0801 6.45294 14.0884V15.3284C6.75741 15.3295 7.05005 15.4464 7.27158 15.6552C7.49312 15.8641 7.62698 16.1493 7.64606 16.4532C7.66513 16.7571 7.56798 17.0568 7.37429 17.2917C7.18061 17.5267 6.90487 17.6792 6.60294 17.7184C6.75671 18.0814 7.01437 18.391 7.34352 18.608C7.67268 18.8251 8.05866 18.94 8.45294 18.9384H13.4029C14.607 16.8305 16.3499 15.0808 18.4529 13.8684V8.73838C18.4503 8.2618 18.2598 7.80549 17.9228 7.46849C17.5858 7.13149 17.1295 6.94101 16.6529 6.93838Z" fill="white"/>
<path fill-rule="evenodd" clip-rule="evenodd" d="M13.3829 18.9384V15.8484C13.3829 15.318 13.5937 14.8092 13.9687 14.4342C14.3438 14.0591 14.8525 13.8484 15.3829 13.8484H18.4529L13.3829 18.9384Z" fill="#FF4000"/>
</g>
<defs>
<clipPath id="clip0_3_983">
<rect width="24" height="24" fill="white" transform="translate(0.452942 0.938354)"/>
</clipPath>
</defs>
</svg>
