<svg width="25" height="25" viewBox="0 0 25 25" fill="none" xmlns="http://www.w3.org/2000/svg">
<g clip-path="url(#clip0_3_999)">
<path d="M1.35889 12.9384C1.35889 4.93835 4.35889 1.93835 12.3589 1.93835C20.3589 1.93835 23.3589 4.93835 23.3589 12.9384C23.3589 20.9384 20.3589 23.9384 12.3589 23.9384C4.35889 23.9384 1.35889 20.9384 1.35889 12.9384Z" fill="#00984B"/>
<path d="M11.6389 12.6384V11.6384C11.6389 11.3519 11.7527 11.0772 11.9552 10.8747C12.1578 10.6721 12.4325 10.5584 12.7189 10.5584H14.2789C14.5619 10.5584 14.8336 10.4474 15.0356 10.2491C15.2376 10.0509 15.3536 9.78131 15.3589 9.49835V8.01835C15.3589 7.73192 15.2451 7.45722 15.0426 7.25468C14.84 7.05214 14.5653 6.93835 14.2789 6.93835H13.3589C12.298 6.93835 11.2806 7.35978 10.5305 8.10993C9.78031 8.86007 9.35889 9.87749 9.35889 10.9384V14.9384C9.35889 15.9992 9.78031 17.0166 10.5305 17.7668C11.2806 18.5169 12.298 18.9384 13.3589 18.9384H14.2489C14.3932 18.9424 14.5369 18.9174 14.6714 18.8649C14.8059 18.8124 14.9285 18.7335 15.032 18.6328C15.1355 18.5321 15.2178 18.4117 15.2739 18.2787C15.33 18.1457 15.3589 18.0027 15.3589 17.8584V16.3784C15.3589 16.0919 15.2451 15.8172 15.0426 15.6147C14.84 15.4121 14.5653 15.2984 14.2789 15.2984H12.7189C12.4325 15.2984 12.1578 15.1846 11.9552 14.982C11.7527 14.7795 11.6389 14.5048 11.6389 14.2184V12.6384Z" fill="white"/>
</g>
<defs>
<clipPath id="clip0_3_999">
<rect width="24" height="24" fill="white" transform="translate(0.358887 0.938354)"/>
</clipPath>
</defs>
</svg>
